<svg version="1.1" id="Layer_1" xmlns="http://www.w3.org/2000/svg" xmlns:xlink="http://www.w3.org/1999/xlink" x="0px" y="0px"
	 width="100%" viewBox="0 0 1024 1024" enable-background="new 0 0 1024 1024" xml:space="preserve">
<path fill="#000000" opacity="1.000000" stroke="none" 
	d="
M680.728760,628.094299 
	C689.615234,631.118408 698.184753,633.863464 706.642944,636.916626 
	C718.730286,641.279785 725.514099,649.744080 728.552002,662.506836 
	C736.338074,695.217468 722.516541,719.266602 698.868591,739.423157 
	C677.135620,757.947510 651.199768,766.464661 623.107605,768.183716 
	C586.133850,770.446289 551.830750,759.761658 519.438416,743.314331 
	C479.152222,722.858765 442.612183,696.578125 408.508606,667.006226 
	C368.359436,632.192139 333.149017,593.002380 305.212921,547.616699 
	C285.025940,514.820374 268.433319,480.440643 260.231873,442.468597 
	C252.003052,404.369812 257.494507,368.614624 278.618164,335.687317 
	C290.303284,317.472656 306.669678,304.667816 326.796783,296.713654 
	C330.066589,295.421417 333.477875,294.789215 337.025330,294.643158 
	C344.221222,294.346954 351.314819,295.399994 358.451080,295.937500 
	C375.209259,297.199738 384.271606,307.305054 389.372223,322.288574 
	C395.919281,341.521210 402.709412,360.671021 409.279510,379.895874 
	C413.258942,391.540222 418.345978,402.857178 420.632751,415.016266 
	C422.732727,426.182098 420.386078,435.825256 411.324188,443.864868 
	C401.865692,452.256348 393.169464,461.525726 384.359406,470.623779 
	C376.716431,478.516602 375.751404,486.151794 380.260834,495.555511 
	C405.194672,547.551331 443.446442,587.862183 490.048523,620.853210 
	C502.028351,629.334045 514.505066,637.036621 527.412109,644.025208 
	C537.210327,649.330566 544.922424,648.774231 552.996643,641.202515 
	C561.735168,633.007812 570.760620,625.070374 578.590637,615.937439 
	C588.404602,604.490417 601.172791,601.018005 616.049316,606.016785 
	C637.519714,613.231201 658.927551,620.631775 680.728760,628.094299 
z"/>
<path fill="#000000" opacity="1.000000" stroke="none" 
	d="
M602.386169,301.530212 
	C680.809021,346.905090 733.901001,411.915375 758.665161,499.173096 
	C766.060486,525.230835 769.709534,551.894897 769.357117,579.049866 
	C769.240601,588.030396 764.593018,593.461487 756.611328,593.639465 
	C748.292603,593.825012 742.816711,588.054443 742.764771,578.822998 
	C742.546570,540.009644 734.952332,502.646790 719.141418,467.261810 
	C683.749634,388.054260 624.383362,334.031433 543.785400,303.052124 
	C510.575317,290.287262 476.021332,283.659546 440.381104,283.005280 
	C436.722321,282.938141 433.063904,282.656433 429.413483,282.370300 
	C423.425934,281.901062 418.693604,277.524933 417.812134,271.751007 
	C416.934601,266.002563 420.222534,260.494873 425.940887,258.350006 
	C428.606720,257.350067 431.404877,256.997681 434.273376,257.051666 
	C493.807770,258.172455 549.882080,272.381104 602.386169,301.530212 
z"/>
<path fill="#000000" opacity="1.000000" stroke="none" 
	d="
M500.929688,363.225708 
	C489.645416,361.360779 478.718414,360.502502 467.718170,360.265594 
	C456.866394,360.031921 450.632996,349.930847 455.883881,341.221344 
	C458.861115,336.283112 463.670593,334.695007 469.145752,334.787537 
	C486.672821,335.083649 504.031494,336.958832 521.070374,341.117188 
	C564.951904,351.826508 602.688049,373.238983 633.307556,406.617798 
	C662.863647,438.837311 680.890137,476.555786 686.421631,520.084290 
	C687.492126,528.508545 688.428955,536.937988 688.217896,545.439758 
	C688.029541,553.023499 682.653564,558.283447 675.203247,558.393188 
	C667.132690,558.512146 661.905396,553.796631 661.669617,545.731934 
	C660.629272,510.145355 651.601074,476.941986 631.547546,447.274994 
	C601.460632,402.764679 559.694763,375.483398 507.252533,364.345551 
	C505.301483,363.931183 503.326447,363.629883 500.929688,363.225708 
z"/>
<path fill="#000000" opacity="1.000000" stroke="none" 
	d="
M555.751709,462.247131 
	C536.376038,443.873016 513.523438,434.933868 487.292328,434.264069 
	C478.903259,434.049866 472.816101,428.601898 472.825867,421.465057 
	C472.835449,414.441803 478.875061,408.731049 486.847290,408.765625 
	C542.824402,409.008331 592.236633,444.734314 606.661987,497.726471 
	C609.165710,506.923798 610.345337,516.300659 610.670715,525.818115 
	C610.940613,533.713135 605.653687,539.826416 597.945923,540.254211 
	C590.036255,540.693237 583.885437,535.030457 583.733032,526.822083 
	C583.264343,501.574188 573.713806,480.287720 555.751709,462.247131 
z"/>
</svg>