<svg xmlns="http://www.w3.org/2000/svg" viewBox="0 0 1024 1024" xml:space="preserve"><path d="M680.729 628.094c8.886 3.024 17.456 5.77 25.914 8.823 12.087 4.363 18.871 12.827 21.909 25.59 7.786 32.71-6.035 56.76-29.683 76.916-21.733 18.525-47.67 27.042-75.761 28.76-36.974 2.263-71.277-8.421-103.67-24.869-40.286-20.455-76.826-46.736-110.93-76.308-40.149-34.814-75.359-74.004-103.295-119.39-20.187-32.796-36.78-67.175-44.981-105.147-8.229-38.1-2.737-73.854 18.386-106.782 11.685-18.214 28.052-31.02 48.179-38.973 3.27-1.293 6.68-1.925 10.228-2.07 7.196-.297 14.29.756 21.426 1.293 16.758 1.263 25.82 11.368 30.921 26.352 6.547 19.232 13.337 38.382 19.908 57.607 3.979 11.644 9.066 22.961 11.353 35.12 2.1 11.166-.247 20.81-9.309 28.849-9.458 8.391-18.155 17.66-26.965 26.759-7.643 7.893-8.608 15.528-4.098 24.932 24.934 51.995 63.185 92.306 109.788 125.297 11.98 8.481 24.456 16.184 37.363 23.172 9.798 5.306 17.51 4.75 25.585-2.822 8.738-8.195 17.764-16.133 25.594-25.266 9.814-11.447 22.582-14.919 37.458-9.92 21.47 7.214 42.879 14.615 64.68 22.077zM602.386 301.53c78.423 45.375 131.515 110.385 156.28 197.643 7.394 26.058 11.044 52.722 10.691 79.877-.116 8.98-4.764 14.411-12.746 14.59-8.318.185-13.794-5.586-13.846-14.817-.218-38.813-7.813-76.176-23.624-111.561-35.391-79.208-94.758-133.23-175.356-164.21-33.21-12.765-67.764-19.392-103.404-20.047-3.659-.067-7.317-.349-10.968-.635-5.987-.469-10.72-4.845-11.6-10.619-.878-5.748 2.41-11.256 8.128-13.401 2.666-1 5.464-1.352 8.332-1.298 59.535 1.12 115.61 15.33 168.113 44.478z"/><path d="M500.93 363.226c-11.285-1.865-22.212-2.723-33.212-2.96-10.852-.234-17.085-10.335-11.834-19.045 2.977-4.938 7.787-6.526 13.262-6.433 17.527.296 34.885 2.17 51.924 6.33 43.882 10.709 81.618 32.121 112.238 65.5 29.556 32.22 47.582 69.938 53.114 113.466 1.07 8.425 2.007 16.854 1.796 25.356-.188 7.583-5.564 12.843-13.015 12.953-8.07.12-13.298-4.596-13.533-12.661-1.04-35.587-10.069-68.79-30.122-98.457-30.087-44.51-71.853-71.792-124.295-82.93-1.952-.414-3.927-.715-6.323-1.12z"/><path d="M555.752 462.247c-19.376-18.374-42.229-27.313-68.46-27.983-8.389-.214-14.476-5.662-14.466-12.799.01-7.023 6.05-12.734 14.021-12.7 55.977.243 105.39 35.97 119.815 88.961 2.504 9.198 3.683 18.575 4.009 28.092.27 7.895-5.017 14.008-12.725 14.436-7.91.44-14.06-5.224-14.213-13.432-.469-25.248-10.02-46.534-27.981-64.575z"/></svg>